# xmcd
#
# Track frame offsets: 
#        150
#        5546
#        16314
#        22417
#        31853
#        34987
#        43912
#        51581
#        59821
#        67067
#        78839
#        84752
#        89838
#        93963
#        101216
#        108396
#        112316
#        123021
#        130563
#        135245
#        143071
#        148409
#        159336
#        166877
#        172380
#
# Disc length: 2419 seconds
#
# Revision: 0
# Processed by: cddbd v1.5.2PL0 Copyright (c) Steve Scherf et al.
# Submitted via: ExactAudioCopy v1.1
#
DISCID=69097119
DTITLE=Various Artist - Bluegrass Pickin' Power Picks_25 Traditional 
DTITLE=Classics_Inst.
DYEAR=2016
DGENRE=Bluegrass
TTITLE0=TATER TATE with Red Smiley and The Bluegrass Cut-Ups - Katy Hill
TTITLE1=Raymond Fairchild - Whoa Mule
TTITLE2=RENO and  HARRELL with The Tennessee Cut-Ups - I Don探 Love Nobod
TTITLE2=y
TTITLE3=RENO and SMILEY with The Tennessee Cut-Ups - Kansas City Railroa
TTITLE3=d Blues
TTITLE4=HYLO BROWN and The Timberliners - Banjo Singnal
TTITLE5=EARL TAYLOR and JIM McCALL with The Stoney Mountain Boys - False
TTITLE5=Hearted Love
TTITLE6=Curly Fox - Black Mountain Rag 
TTITLE7=EARL TAYLOR and JIM McCALL with The Stoney Mountain Boys - Old J
TTITLE7=oe Clark 
TTITLE8=HYLO BROWN and The Timberliners - Fireball Mail 
TTITLE9=TATER TATE with Red Smiley and The Bluegrass Cut-Ups  - Whiskey 
TTITLE9=Before Breakfast
TTITLE10=RED SMILEY and The Bluegrass Cut-Ups  - Salt Creek 
TTITLE11=MAC MARTIN and The Dixie Travelers - Cotton Eyed Joe
TTITLE12=Vassar Clements - Fast Travlin・
TTITLE13=Raymond Fairchild - Raymond担 Repeating Banjo
TTITLE14=EARL TAYLOR and JIM McCALL with The Stoney Mountain Boys - Wild
TTITLE14=wood Flower
TTITLE15=Curly Fox - Mississippi Sawyer
TTITLE16=RENO and HARRELL with The Tennessee Cut-Ups - Under The Double 
TTITLE16=Eagle
TTITLE17=MAC MARTIN and The Dixie Travelers - Lee Highway Blues
TTITLE18=TATER TATE with Red Smiley and The Bluegrass Cut-Ups - Sally Go
TTITLE18=odin・
TTITLE19=HYLO BROWN and The Timerliners  - Banjo On The Mountain
TTITLE20=Lee Moore - Keep On The Sunny Side
TTITLE21=TATER TATE with Red Smiley and The Bluegrass Cut-Ups - Lost Ind
TTITLE21=ian
TTITLE22=Raymond Fairchild - Flop Eared Mule
TTITLE23=RED SMILEY and The Bluegrass Cut-Ups - Black Eyed Susan
TTITLE24=MAC MARTIN and The Dixie Travelers - East Tennessee Blues
EXTD=
EXTT0=
EXTT1=
EXTT2=
EXTT3=
EXTT4=
EXTT5=
EXTT6=
EXTT7=
EXTT8=
EXTT9=
EXTT10=
EXTT11=
EXTT12=
EXTT13=
EXTT14=
EXTT15=
EXTT16=
EXTT17=
EXTT18=
EXTT19=
EXTT20=
EXTT21=
EXTT22=
EXTT23=
EXTT24=
PLAYORDER=
